@startuml
package "PIPE datapath UVM Testbench Topology" {
    class uvm_test_top {
        env
    }
    class env {
        agent
    }
    class agent {
        driver
        monitor
        sequencer
        is_active: uvm_active_passive_enum
    }
    class driver {
        +rsp_port: uvm_analysis_port
        +seq_item_port: uvm_seq_item_pull_port
    }
    class monitor {
        +item_collected_port: uvm_analysis_port
    }
    class sequencer {
        +rsp_export: uvm_analysis_export
        +seq_item_export: uvm_seq_item_pull_imp
        +arbitration_queue: array
        +lock_queue: array
        +num_last_reqs: integral
        +num_last_rsps: integral
    }

    uvm_test_top --|> env
    env --|> agent
    agent --|> driver
    agent --|> monitor
    agent --|> sequencer
    driver --|> rsp_port
    driver --|> seq_item_port
    monitor --|> item_collected_port
    sequencer --|> rsp_export
    sequencer --|> seq_item_export
    sequencer --|> arbitration_queue
    sequencer --|> lock_queue
    sequencer --|> num_last_reqs
    sequencer --|> num_last_rsps
}
@enduml
